name processed_emg_signals
nRows=74
nColumns=7
 
endheader
time	RGLTMED	RRF	RADDLONG	RST	RTA	RGM
0.0	0.0147029530727973	0.1383039357846286	0.1383103365255791	0.1281594705793345	0.0149034797305279	0.1403077071703651
0.001	0.0174838979550093	0.1285443020054993	0.1274884941143447	0.1331954132085684	0.0090329202225637	0.1550724031281861
0.002	0.0202679675045001	0.1188320817403481	0.1166225730738233	0.1382260477043693	0.0031921293390064	0.1697819788840646
0.003	0.0230533943522565	0.1091727820664573	0.1057164459124458	0.1432470775561924	0.0026148890866544	0.184425001139268
0.004	0.0258384205683038	0.0995718375251649	0.0947739631015307	0.1482541834704887	0.0083841636986435	0.1989900644574875
0.005	0.0286213011435002	0.0900346028710742	0.0837989482560223	0.1532430300542836	0.0141117614387133	0.2134658089837466
0.006	0.0314003074097066	0.0805663460223519	0.0727951935091501	0.1582092725778101	0.0197937932673523	0.2278409380585921
0.007	0.0341737303809167	0.0711722412300274	0.0617664550981927	0.1631485637973354	0.0254264197679424	0.2421042356675439
0.008	0.0369398839990369	0.0618573624834463	0.0507164491753235	0.1680565608201067	0.031005856616349	0.25624458366948
0.009000000000000001	0.0396971082706024	0.0526266771675312	0.0396488478560444	0.1729289319943676	0.0365283798995414	0.2702509787515874
0.01	0.0424437722830338	0.0434850399862377	0.0285672755155993	0.1777613638086526	0.0419903312680725	0.2841125490623448
0.011	0.0451782770910041	0.0344371871645598	0.01747530534225	0.1825495677846831	0.047388122908415	0.2978185704769839
0.012	0.0478990584660154	0.0254877309399343	0.0063764561555484	0.1872892873492352	0.0527182423222089	0.3113584824527201
0.013000000000000001	0.050604589503782	0.0166411543515276	0.0047258105034833	0.1919763046705176	0.0579772569004395	0.3247219034343743
0.014	0.0532933830858348	0.0079018063339592	0.0158280930047466	0.1966064474459904	0.0631618182818599	0.3378986457753306
0.015	0.0559639941925462	0.0007261028797894	0.0269270519798636	0.2011755956289103	0.0682686664863136	0.3508787301433494
0.016	0.0586150220657659	0.0092385060436836	0.0380194123895065	0.2056796880818445	0.0732946338151261	0.3636523993850597
0.017	0.0612451122197252	0.0176314828704606	0.0491019653075844	0.2101147291452854	0.0782366485122886	0.3762101318261618
0.018000000000000002	0.0638529582996143	0.0259012636895912	0.0601715694242532	0.2144767951093048	0.0830917381817886	0.3885426539864771
0.019	0.0664373037871557	0.0340442327918725	0.0712251522719241	0.218762040576077	0.0878570329579699	0.4006409526903123
0.02	0.0689969435535119	0.0420569314619081	0.0822597111784584	0.2229667047007265	0.0925297684273791	0.4124962865537751
0.021	0.0715307252596917	0.0499360607005926	0.0932723139531872	0.2270871172979539	0.0971072883020473	0.4241001968321151
0.022	0.074037550605271	0.0576784836399647	0.1042600993113508	0.2311197048015071	0.1015870468456502	0.435444517611861
0.023	0.0765163764266664	0.0652812276532763	0.1152202770435271	0.2350609960635961	0.1059666110553253	0.4465213853343939
0.024	0.0789662156463508	0.0727414861638267	0.1261501279368612	0.2389076279811509	0.1102436626031965	0.4573232476392365
0.025	0.0813861380755895	0.0800566201563954	0.1370470034563974	0.2426563509359789	0.1144159995424887	0.4678428715174061
0.026000000000000002	0.0837752710727301	0.0872241593956866	0.1479083251949775	0.2463040340358777	0.1184815377837294	0.478073350767327
0.027	0.0861328000604066	0.0942418033566332	0.1587315841006647	0.2498476701445355	0.1224383123467883	0.4880081127484466
0.028	0.0884579689041326	0.1011074218716079	0.169514339491311	0.2532843806879135	0.1262844783943998	0.4976409244303904
0.029	0.0907500801558914	0.107819055499388	0.1802542178660444	0.2566114202263351	0.1300183120527845	0.5069658977386308
0.03	0.0930084951656056	0.1143749156207969	0.1909489115243694	0.2598261807821765	0.1336382110248317	0.5159774942008023
0.031	0.0952326340643396	0.1207733842659309	0.2015961770033928	0.2629261959144751	0.1371426950013587	0.5246705289006197
0.032	0.0974219756223147	0.1270130136777289	0.212193833344665	0.2659091445331817	0.1405304058759982	0.5330401737486204
0.033	0.0995760569854394	0.1330925256167944	0.2227397602019068	0.2687728544472714	0.1438001077692401	0.5410819600808824
0.034	0.1016944732937747	0.1390108104125073	0.2332318958014877	0.2715153056423493	0.1469506868671264	0.5487917805994788
0.035	0.1037768771851782	0.1447669257660434	0.2436682347680238	0.2741346332845664	0.1499811510800012	0.5561658906714805
0.036000000000000004	0.1058229781873976	0.1503600953114184	0.2540468258278945	0.2766291304483532	0.1528906295269351	0.5632009090063971
0.037	0.1078325420021261	0.1557897069415962	0.2643657694039238	0.2789972505658666	0.1556783718517983	0.5698938177344502
0.038	0.1098053896846035	0.1610553109076285	0.274623215114583	0.2812376095955738	0.1583437473775016	0.5762419619099534
0.039	0.1117413967233984	0.1661566176997062	0.2848173591907598	0.2833489879081503	0.1608862441053852	0.5822430484653223
0.04	0.1136404920250736	0.1710934957196624	0.2949464418222582	0.2853303318874626	0.1633054675670418	0.5878951446417277
0.041	0.1155026568092944	0.1758659687552287	0.3050087444460371	0.2871807552458811	0.1656011395359684	0.5931966759223738
0.042	0.1173279234196419	0.1804742132663579	0.315002586987457	0.2888995400532215	0.1677730966063373	0.5981464234938882
0.043000000000000003	0.1191163740554322	0.1849185554941563	0.3249263250663223	0.2904861374798795	0.169821288645897	0.6027435212605061
0.044	0.1208681394298996	0.1891994684029155	0.3347783471792295	0.2919401682545695	0.1717457771297345	0.606987452434631
0.045	0.1225833973594132	0.1933175684659278	0.3445570718702461	0.2932614228378052	0.1735467333613402	0.610878045726277
0.046	0.1242623712887339	0.1972736123059547	0.3542609449013116	0.294449861311524	0.1752244365871255	0.6144154711525501
0.047	0.1259053287567845	0.201068493201058	0.3638884364343062	0.2955056129853232	0.1767792720102959	0.6176002354869374
0.048	0.1275125798073672	0.2047032374666127	0.3734380382361577	0.2964289757193622	0.1782117287098298	0.6204331773667829
0.049	0.1290844753492647	0.2081790007240201	0.3829082609187541	0.297220414964422	0.1795223974701414	0.6229154620758365
0.05	0.1306214054697418	0.2114970640661047	0.3922976312251509	0.2978805625203167	0.1807119685268571	0.6250485760176678
0.051000000000000004	0.1321237977057882	0.2146588301295083	0.4016046893729052	0.298410215014447	0.1817812292341083	0.6268343208951083
0.052000000000000005	0.1335921152770726	0.2176658190838631	0.4108279864654487	0.2988103321037102	0.1827310616587336	0.628274807610962
0.053	0.1350268552846244	0.2205196645474855	0.4199660819817731	0.2990820344036119	0.1835624401067822	0.6293724499057487
0.054	0.1364285468795829	0.2232221094390949	0.4290175413542448	0.2992266011494151	0.1842764285877872	0.6301299577485103
0.055	0.1377977494061381	0.2257750017749681	0.4379809336442469	0.299245467595172	0.184874178222405	0.6305503304963567
0.056	0.1391350505234007	0.2281802904203599	0.4468548293242285	0.2991402221569214	0.1853569245992767	0.6306368498377467
0.057	0.140441064310321	0.2304400208039449	0.4556377981736897	0.298912603306972	0.1857259850872372	0.630393072533562
0.058	0.141716429358247	0.2325563306032184	0.4643284072961907	0.2985644962267424	0.1859827561093327	0.6298228229690344
0.059000000000000004	0.142961806854902	0.2345314454090305	0.4729252192626398	0.2980979292259747	0.1861287103854542	0.6289301855284026
0.06	0.1441778786636812	0.2363676743765322	0.4814267903863188	0.2975150699366113	0.1861653941505388	0.6277194968028367
0.061	0.1453653454015823	0.2380674058702989	0.4898316691328499	0.2968182212896025	0.186094424355303	0.6261953376410837
0.062	0.1465249245194707	0.2396331031104941	0.4981383946688681	0.2960098172831738	0.1859174858562591	0.6243625250514869
0.063	0.1476573483876687	0.2410672998271271	0.5063454955513695	0.2950924185509894	0.1856363286014471	0.6222261039641908
0.064	0.14876336238989	0.2423725959291528	0.5144514885596086	0.2940687077395563	0.18525276481788	0.6197913388631016
0.065	0.1498437230281947	0.2435516531943526	0.5224548776703402	0.2929414847045225	0.1847686662062316	0.617063705298643
0.066	0.1508991960413569	0.244607190985995	0.5303541531764246	0.2917136615366774	0.18418596114787	0.6140488812937357
0.067	0.1519305545387347	0.2455419820011229	0.5381477909480437	0.2903882574292665	0.1835066319290112	0.6107527386564853
0.068	0.1529385771519537	0.2463588480551369	0.5458342518351075	0.288968393399379	0.1827327119865213	0.607181334213352
0.069	0.1539240462064705	0.2470606559064403	0.5534119812082695	0.2874572868769436	0.1818662831796478	0.6033409009764023
0.07	0.1548877459154561	0.2476503131245863	0.5608794086364163	0.285858246175203	0.1809094730916707	0.5992378392575121
0.07100000000000001	0.1558304605984033	0.2481307640055914	0.5682349476977435	0.2841746648562454	0.1798644523652286	0.5948787077418195
0.07200000000000001	0.1567529729267701	0.2485049855376392	0.5754769959220931	0.2824100160049783	0.1787334320747296	0.5902702145320302
0.073	0.1576560621988995	0.2487759834210424	0.5826039348618773	0.2805678464246979	0.1775186611390608	0.5854192081753383
